<?xml version="1.0" encoding="UTF-8" standalone="no"?>
<!-- Created with Inkscape (http://www.inkscape.org/) -->

<svg
   width="210mm"
   height="297mm"
   viewBox="0 0 210 297"
   version="1.1"
   id="svg5"
   xmlns="http://www.w3.org/2000/svg"
   xmlns-svg="http://www.w3.org/2000/svg">
  <defs id="defs2">
    <style>
      .path234 {
        fill: #2f3e46;
        fill-opacity: 1;
        stroke: none;
        strokeWidth: 0.0925062;
      }
      .path234-4 {
        fill: #354f52;
        fill-opacity: 1;
        stroke: none;
        strokeWidth: 0.0687729;
      }
      .path234-4-9 {
        fill: #52796f;
        fill-opacity: 1;
        stroke: none;
        strokeWidth: 0.0470026;
      }
      .path234-4-9-8 {
        fill: #84a98c;
        fill-opacity: 1;
        stroke: none;
        strokeWidth: 0.0324241;
      }
      .rect342-3-9-9-9 {
        fill: #ffffff;
        fill-opacity: 0.733333;
        stroke: #354f52;
        strokeWidth: 1.90581;
        strokeLinecap: square;
        strokeLinejoin: round;
      }
      .text1564 {
        font-size: 29.3333px;
        font-family: Calibri;
        -inkscape-font-specification: Calibri;
        white-space: pre;
        fill: #354f52;
        strokeWidth: 1.13386;
        strokeLinecap: square;
        strokeLinejoin: round;
      }
    </style>
    <rect x="163.89047" y="411.67728" width="281.60547" height="41.622978" id="rect1566" />
  </defs>
  <g
     id="layer1">
    <g
       id="g4956"
       transform="translate(14.798378,0.8603708)">
      <path
         id="path234"
         style="fill:#2f3e46;fill-opacity:1;stroke:none;strokeWidth:0.0925062"
         d="M 84.065821,52.677932 A 44.820274,44.820794 0 0 0 48.649151,68.193826 44.820274,44.820794 0 0 0 38.243857,103.79366 H 126.95154 A 44.820274,44.820794 0 0 0 111.52793,63.252946 44.820274,44.820794 0 0 0 84.065821,52.677932 Z" />
      <path
         id="path234-4"
         style="fill:#354f52;fill-opacity:1;stroke:none;strokeWidth:0.0687729"
         d="M 83.693889,62.05093 A 33.321238,33.321625 0 0 0 57.36387,73.586219 33.321238,33.321625 0 0 0 50.340374,103.68204 H 114.85317 A 33.321238,33.321625 0 0 0 104.11065,69.913117 33.321238,33.321625 0 0 0 83.693889,62.05093 Z" />
      <path
         id="path234-4-9"
         style="fill:#52796f;fill-opacity:1;stroke:none;strokeWidth:0.0470026"
         d="M 83.348268,71.97182 A 22.773295,22.773559 0 0 0 65.353099,79.855578 22.773295,22.773559 0 0 0 61.61474,103.58216 h 41.96232 A 22.773295,22.773559 0 0 0 97.302033,77.345209 22.773295,22.773559 0 0 0 83.348268,71.97182 Z" />
      <path
         id="path234-4-9-8"
         style="fill:#84a98c;fill-opacity:1;stroke:none;strokeWidth:0.0324241"
         d="M 83.114813,81.875171 A 15.709854,15.710037 0 0 0 70.701085,87.313677 15.709854,15.710037 0 0 0 68.122228,103.68114 H 97.069379 A 15.709854,15.710037 0 0 0 92.740634,85.581932 15.709854,15.710037 0 0 0 83.114813,81.875171 Z" />
      <path
         id="rect342-3-9-9-9"
         style="fill:#ffffff;fill-opacity:0.733333;stroke:#354f52;strokeWidth:1.90581;strokeLinecap:square;strokeLinejoin:round"
         d="m 34.892849,104.34435 h 95.440531 v 19.79988 H 34.892849 Z" />
      <g
         aria-label="INMOCARLOS III"
         transform="matrix(0.32208454,0,0,0.32208454,-7.1989446,-23.477119)"
         id="text1564"
         style="font-size:29.3333px;font-family:Calibri;-inkscape-font-specification:Calibri;white-space:pre;shape-inside:url(#rect1566);fill:#354f52;strokeWidth:1.13386;strokeLinecap:square;strokeLinejoin:round">
        <path
           d="m 166.6263,438.09983 v -20.99737 h 2.77864 v 20.99737 z"
           style="font-family:Arial;-inkscape-font-specification:Arial"
           id="path4897" />
        <path
           d="m 174.27473,438.09983 v -20.99737 h 2.85026 l 11.02863,16.48566 v -16.48566 h 2.66406 v 20.99737 h -2.85026 l -11.02863,-16.49998 v 16.49998 z"
           style="font-family:Arial;-inkscape-font-specification:Arial"
           id="path4899" />
        <path
           d="m 195.40101,438.09983 v -20.99737 h 4.18228 l 4.97005,14.86717 q 0.6875,2.07682 1.0026,3.10807 0.35807,-1.14583 1.11719,-3.36588 l 5.02734,-14.60936 h 3.73827 v 20.99737 h -2.67838 v -17.57419 l -6.10155,17.57419 h -2.50651 l -6.07291,-17.87498 v 17.87498 z"
           style="font-family:Arial;-inkscape-font-specification:Arial"
           id="path4901" />
        <path
           d="m 219.07676,427.87328 q 0,-5.22786 2.80729,-8.17837 2.80728,-2.96484 7.24738,-2.96484 2.90755,0 5.24219,1.38932 2.33463,1.38932 3.55207,3.8815 1.23177,2.47787 1.23177,5.6289 0,3.19401 -1.28906,5.71484 -1.28906,2.52083 -3.65234,3.82422 -2.36328,1.28906 -5.09895,1.28906 -2.96484,0 -5.29947,-1.43229 -2.33464,-1.43229 -3.53776,-3.91016 -1.20312,-2.47786 -1.20312,-5.24218 z m 2.86458,0.043 q 0,3.79557 2.03385,5.98697 2.04817,2.17708 5.1276,2.17708 3.13671,0 5.15624,-2.20572 2.03385,-2.20573 2.03385,-6.25911 0,-2.5638 -0.87369,-4.46874 -0.85938,-1.91927 -2.53516,-2.96484 -1.66145,-1.0599 -3.73827,-1.0599 -2.95052,0 -5.08463,2.03385 -2.11979,2.01953 -2.11979,6.76041 z"
           style="font-family:Arial;-inkscape-font-specification:Arial"
           id="path4903" />
        <path
           d="m 257.71995,430.73786 2.77864,0.70183 q -0.8737,3.42317 -3.15104,5.22785 -2.26302,1.79037 -5.54296,1.79037 -3.39453,0 -5.52864,-1.375 -2.11979,-1.38932 -3.23698,-4.01041 -1.10286,-2.62109 -1.10286,-5.6289 0,-3.27995 1.24609,-5.71484 1.26042,-2.44922 3.5664,-3.70963 2.32031,-1.27474 5.09896,-1.27474 3.15103,0 5.29947,1.60416 2.14843,1.60417 2.99349,4.51172 l -2.73568,0.64453 q -0.73047,-2.29167 -2.11979,-3.33724 -1.38932,-1.04557 -3.49478,-1.04557 -2.42058,0 -4.05339,1.16016 -1.61848,1.16015 -2.27734,3.12239 -0.65885,1.94791 -0.65885,4.02473 0,2.67839 0.77344,4.68359 0.78776,1.99088 2.43489,2.97916 1.64713,0.98828 3.5664,0.98828 2.33463,0 3.95312,-1.34635 1.61849,-1.34635 2.19141,-3.99609 z"
           style="font-family:Arial;-inkscape-font-specification:Arial"
           id="path4905" />
        <path
           d="m 261.61577,438.09983 8.06379,-20.99737 h 2.99349 l 8.59374,20.99737 h -3.16536 l -2.44922,-6.35936 h -8.77994 l -2.30598,6.35936 z m 6.05859,-8.62238 h 7.11848 l -2.19141,-5.8151 q -1.0026,-2.64974 -1.48958,-4.35416 -0.40104,2.01953 -1.13151,4.01041 z"
           style="font-family:Arial;-inkscape-font-specification:Arial"
           id="path4907" />
        <path
           d="m 283.52981,438.09983 v -20.99737 h 9.30989 q 2.80728,0 4.26822,0.57292 1.46094,0.55859 2.33463,1.99088 0.8737,1.43229 0.8737,3.16536 0,2.23437 -1.44661,3.76692 -1.44662,1.53256 -4.46875,1.94792 1.10287,0.52995 1.67578,1.04557 1.21745,1.11719 2.30599,2.79297 l 3.65234,5.71483 h -3.49479 l -2.77864,-4.36848 q -1.21745,-1.89062 -2.00521,-2.89323 -0.78776,-1.0026 -1.41797,-1.40364 -0.61588,-0.40104 -1.26041,-0.55859 -0.47266,-0.10026 -1.54687,-0.10026 h -3.22266 v 9.3242 z m 2.77864,-11.73045 h 5.97265 q 1.90495,0 2.97917,-0.38672 1.07421,-0.40104 1.63281,-1.26042 0.55859,-0.87369 0.55859,-1.89062 0,-1.48958 -1.08854,-2.44921 -1.07422,-0.95964 -3.40885,-0.95964 h -6.64583 z"
           style="font-family:Arial;-inkscape-font-specification:Arial"
           id="path4909" />
        <path
           d="m 304.55583,438.09983 v -20.99737 h 2.77864 v 18.51951 h 10.34114 v 2.47786 z"
           style="font-family:Arial;-inkscape-font-specification:Arial"
           id="path4911" />
        <path
           d="m 320.13914,427.87328 q 0,-5.22786 2.80729,-8.17837 2.80729,-2.96484 7.24739,-2.96484 2.90755,0 5.24218,1.38932 2.33463,1.38932 3.55208,3.8815 1.23177,2.47787 1.23177,5.6289 0,3.19401 -1.28906,5.71484 -1.28906,2.52083 -3.65234,3.82422 -2.36328,1.28906 -5.09895,1.28906 -2.96484,0 -5.29948,-1.43229 -2.33463,-1.43229 -3.53775,-3.91016 -1.20313,-2.47786 -1.20313,-5.24218 z m 2.86458,0.043 q 0,3.79557 2.03386,5.98697 2.04817,2.17708 5.12759,2.17708 3.13672,0 5.15625,-2.20572 2.03385,-2.20573 2.03385,-6.25911 0,-2.5638 -0.8737,-4.46874 -0.85937,-1.91927 -2.53515,-2.96484 -1.66146,-1.0599 -3.73828,-1.0599 -2.95052,0 -5.08463,2.03385 -2.11979,2.01953 -2.11979,6.76041 z"
           style="font-family:Arial;-inkscape-font-specification:Arial"
           id="path4913" />
        <path
           d="m 342.85526,431.35375 2.62109,-0.22917 q 0.1862,1.57552 0.85937,2.59245 0.6875,1.0026 2.11979,1.63281 1.43229,0.61588 3.22266,0.61588 1.58984,0 2.80728,-0.47265 1.21745,-0.47266 1.80469,-1.28907 0.60156,-0.83072 0.60156,-1.80468 0,-0.98828 -0.57292,-1.71875 -0.57291,-0.74479 -1.89062,-1.24609 -0.84505,-0.32943 -3.73827,-1.01693 -2.89323,-0.70182 -4.05339,-1.3177 -1.5039,-0.78776 -2.24869,-1.94792 -0.73047,-1.17448 -0.73047,-2.62109 0,-1.58984 0.90234,-2.96484 0.90235,-1.38932 2.63542,-2.10547 1.73307,-0.71614 3.85286,-0.71614 2.33463,0 4.11067,0.75911 1.79036,0.74479 2.75,2.20573 0.95963,1.46094 1.03125,3.30859 l -2.66406,0.20052 q -0.21485,-1.99088 -1.46094,-3.00781 -1.23177,-1.01692 -3.65234,-1.01692 -2.52083,0 -3.68098,0.93098 -1.14584,0.91667 -1.14584,2.22005 0,1.13151 0.81641,1.86198 0.80208,0.73047 4.18229,1.50391 3.39452,0.75911 4.65494,1.33202 1.83333,0.84506 2.70703,2.14844 0.87369,1.28906 0.87369,2.97916 0,1.67578 -0.95963,3.16536 -0.95964,1.47526 -2.76432,2.30599 -1.79036,0.81641 -4.03906,0.81641 -2.85026,0 -4.78385,-0.83073 -1.91927,-0.83073 -3.02213,-2.49219 -1.08854,-1.67578 -1.14583,-3.78124 z"
           style="font-family:Arial;-inkscape-font-specification:Arial"
           id="path4915" />
        <path
           d="m 371.98804,438.09983 v -20.99737 h 2.77864 v 20.99737 z"
           style="font-family:Arial;-inkscape-font-specification:Arial"
           id="path4917" />
        <path
           d="m 380.13777,438.09983 v -20.99737 h 2.77865 v 20.99737 z"
           style="font-family:Arial;-inkscape-font-specification:Arial"
           id="path4919" />
        <path
           d="m 388.28751,438.09983 v -20.99737 h 2.77864 v 20.99737 z"
           style="font-family:Arial;-inkscape-font-specification:Arial"
           id="path4921" />
      </g>
      <path
         style="fill:#e1e6dc;fill-opacity:1;stroke:none;strokeWidth:0.3;strokeLinecap:square;strokeLinejoin:round;stroke-dasharray:none;stroke-opacity:1"
         d="m 37.866075,99.621395 31.365959,0.07127 18.232033,-22.001188 18.670073,21.552288 3.8394,4.162045 -4.96864,-0.0323 -17.34725,-20.089622 -17.175153,20.100422 -32.285412,0.0215 c 0,0 -0.435055,-3.40238 -0.33101,-3.799637 z"
         id="path3448" />
      <path
         id="path3448-8"
         style="fill:#e1e6dc;fill-opacity:1;stroke:none;strokeWidth:0.3;strokeLinecap:square;strokeLinejoin:round;stroke-dasharray:none;stroke-opacity:1"
         d="m 99.675875,77.675469 -5.303035,6.399092 2.422591,2.791044 3.073714,-3.597712 17.347295,20.089737 4.96869,0.032 -3.83905,-4.162028 z" />
      <path
         id="rect4708"
         style="fill:#e1e6dc;strokeWidth:0.375127;strokeLinecap:square;strokeLinejoin:round"
         d="m 81.648506,98.311867 h 5 v 5.000003 h -5 z" />
      <path
         id="rect4708-5"
         style="fill:#e1e6dc;strokeWidth:0.375127;strokeLinecap:square;strokeLinejoin:round"
         d="m 87.886505,98.335457 h 5 v 5.000003 h -5 z" />
      <path
         id="rect4708-0"
         style="fill:#e1e6dc;strokeWidth:0.375127;strokeLinecap:square;strokeLinejoin:round"
         d="m 81.648842,92.058334 h 5 v 5 h -5 z" />
      <path
         id="rect4708-8"
         style="fill:#e1e6dc;strokeWidth:0.375127;strokeLinecap:square;strokeLinejoin:round"
         d="m 87.886528,92.058334 h 5 v 5 h -5 z" />
    </g>
  </g>
</svg>
